HIERARCHY
ROOT Hips
{
	OFFSET 0 0 0
	CHANNELS 6 Xposition Yposition Zposition Yrotation Xrotation Zrotation
	JOINT Spine
	{
		OFFSET -0 8.00685 -2.55218
		CHANNELS 3 Yrotation Xrotation Zrotation
		JOINT Spine1
		{
			OFFSET -0 7.45793 0
			CHANNELS 3 Yrotation Xrotation Zrotation
			JOINT Spine2
			{
				OFFSET -0 7.45793 0
				CHANNELS 3 Yrotation Xrotation Zrotation
				JOINT Spine3
				{
					OFFSET -0 7.45793 0
					CHANNELS 3 Yrotation Xrotation Zrotation
					JOINT Neck
					{
						OFFSET -0 14.9948 3.55218
						CHANNELS 3 Yrotation Xrotation Zrotation
						JOINT Head
						{
							OFFSET -0 10.0086 0
							CHANNELS 3 Yrotation Xrotation Zrotation
							End Site
							{
								OFFSET 0 15 0
							}
						}
					}
					JOINT LeftShoulder
					{
						OFFSET 1.66809 3.17829 3.33619
						CHANNELS 3 Yrotation Xrotation Zrotation
						JOINT LeftArm
						{
							OFFSET 18.653 0 0
							CHANNELS 3 Yrotation Xrotation Zrotation
							JOINT LeftForeArm
							{
								OFFSET 22.9554 0 0
								CHANNELS 3 Yrotation Xrotation Zrotation
								JOINT LeftHand
								{
									OFFSET 21.8677 0 0
									CHANNELS 3 Yrotation Xrotation Zrotation
									JOINT LeftHandThumb1
									{
										OFFSET 4.74436 0 2.66649
										CHANNELS 3 Yrotation Xrotation Zrotation
										JOINT LeftHandThumb2
										{
											OFFSET 3 0 1
											CHANNELS 3 Yrotation Xrotation Zrotation
											JOINT LeftHandThumb3
											{
												OFFSET 2.1 0 0
												CHANNELS 3 Yrotation Xrotation Zrotation
												JOINT LeftHandThumb4
												{
													OFFSET 1.305 0 0
													CHANNELS 3 Yrotation Xrotation Zrotation
													End Site
													{
														OFFSET -0 0 0
													}
												}
											}
										}
									}
									JOINT LeftHandIndex1
									{
										OFFSET 8.93865 0 3.46871
										CHANNELS 3 Yrotation Xrotation Zrotation
										JOINT LeftHandIndex2
										{
											OFFSET 3.5 0 0
											CHANNELS 3 Yrotation Xrotation Zrotation
											JOINT LeftHandIndex3
											{
												OFFSET 2.45 0 0
												CHANNELS 3 Yrotation Xrotation Zrotation
												JOINT LeftHandIndex4
												{
													OFFSET 1.5225 0 0
													CHANNELS 3 Yrotation Xrotation Zrotation
													End Site
													{
														OFFSET -0 0 0
													}
												}
											}
										}
									}
									JOINT LeftHandMiddle1
									{
										OFFSET 8.93983 0 1.07882
										CHANNELS 3 Yrotation Xrotation Zrotation
										JOINT LeftHandMiddle2
										{
											OFFSET 4.6 0 0
											CHANNELS 3 Yrotation Xrotation Zrotation
											JOINT LeftHandMiddle3
											{
												OFFSET 3.22 0 0
												CHANNELS 3 Yrotation Xrotation Zrotation
												JOINT LeftHandMiddle4
												{
													OFFSET 2.001 0 0
													CHANNELS 3 Yrotation Xrotation Zrotation
													End Site
													{
														OFFSET -0 0 0
													}
												}
											}
										}
									}
									JOINT LeftHandRing1
									{
										OFFSET 8.64101 0 -1.31106
										CHANNELS 3 Yrotation Xrotation Zrotation
										JOINT LeftHandRing2
										{
											OFFSET 3.75 0 0
											CHANNELS 3 Yrotation Xrotation Zrotation
											JOINT LeftHandRing3
											{
												OFFSET 2.625 0 0
												CHANNELS 3 Yrotation Xrotation Zrotation
												JOINT LeftHandRing4
												{
													OFFSET 1.63125 0 0
													CHANNELS 3 Yrotation Xrotation Zrotation
													End Site
													{
														OFFSET -0 0 0
													}
												}
											}
										}
									}
									JOINT LeftHandPinky1
									{
										OFFSET 8.04219 0 -3.70094
										CHANNELS 3 Yrotation Xrotation Zrotation
										JOINT LeftHandPinky2
										{
											OFFSET 2.875 0 0
											CHANNELS 3 Yrotation Xrotation Zrotation
											JOINT LeftHandPinky3
											{
												OFFSET 2.0125 0 0
												CHANNELS 3 Yrotation Xrotation Zrotation
												JOINT LeftHandPinky4
												{
													OFFSET 1.25062 0 0
													CHANNELS 3 Yrotation Xrotation Zrotation
													End Site
													{
														OFFSET -0 0 0
													}
												}
											}
										}
									}
								}
							}
						}
					}
					JOINT RightShoulder
					{
						OFFSET -1.66809 3.17829 3.33619
						CHANNELS 3 Yrotation Xrotation Zrotation
						JOINT RightArm
						{
							OFFSET -18.653 0 0
							CHANNELS 3 Yrotation Xrotation Zrotation
							JOINT RightForeArm
							{
								OFFSET -22.9554 0 0
								CHANNELS 3 Yrotation Xrotation Zrotation
								JOINT RightHand
								{
									OFFSET -21.8677 0 0
									CHANNELS 3 Yrotation Xrotation Zrotation
									JOINT RightHandThumb1
									{
										OFFSET -4.93523 0 1.98499
										CHANNELS 3 Yrotation Xrotation Zrotation
										JOINT RightHandThumb2
										{
											OFFSET -3 0 1
											CHANNELS 3 Yrotation Xrotation Zrotation
											JOINT RightHandThumb3
											{
												OFFSET -2.1 0 0
												CHANNELS 3 Yrotation Xrotation Zrotation
												JOINT RightHandThumb4
												{
													OFFSET -1.305 0 0
													CHANNELS 3 Yrotation Xrotation Zrotation
													End Site
													{
														OFFSET -0 0 0
													}
												}
											}
										}
									}
									JOINT RightHandIndex1
									{
										OFFSET -9.43254 0 2.90277
										CHANNELS 3 Yrotation Xrotation Zrotation
										JOINT RightHandIndex2
										{
											OFFSET -3.5 0 0
											CHANNELS 3 Yrotation Xrotation Zrotation
											JOINT RightHandIndex3
											{
												OFFSET -2.45 0 0
												CHANNELS 3 Yrotation Xrotation Zrotation
												JOINT RightHandIndex4
												{
													OFFSET -1.5225 0 0
													CHANNELS 3 Yrotation Xrotation Zrotation
													End Site
													{
														OFFSET -0 0 0
													}
												}
											}
										}
									}
									JOINT RightHandMiddle1
									{
										OFFSET -9.35706 0 0.88564
										CHANNELS 3 Yrotation Xrotation Zrotation
										JOINT RightHandMiddle2
										{
											OFFSET -4.6 0 0
											CHANNELS 3 Yrotation Xrotation Zrotation
											JOINT RightHandMiddle3
											{
												OFFSET -3.22 0 0
												CHANNELS 3 Yrotation Xrotation Zrotation
												JOINT RightHandMiddle4
												{
													OFFSET -2.001 0 0
													CHANNELS 3 Yrotation Xrotation Zrotation
													End Site
													{
														OFFSET -0 0 0
													}
												}
											}
										}
									}
									JOINT RightHandRing1
									{
										OFFSET -8.98158 0 -1.13149
										CHANNELS 3 Yrotation Xrotation Zrotation
										JOINT RightHandRing2
										{
											OFFSET -3.75 0 0
											CHANNELS 3 Yrotation Xrotation Zrotation
											JOINT RightHandRing3
											{
												OFFSET -2.625 0 0
												CHANNELS 3 Yrotation Xrotation Zrotation
												JOINT RightHandRing4
												{
													OFFSET -1.63125 0 0
													CHANNELS 3 Yrotation Xrotation Zrotation
													End Site
													{
														OFFSET -0 0 0
													}
												}
											}
										}
									}
									JOINT RightHandPinky1
									{
										OFFSET -8.3061 0 -3.14863
										CHANNELS 3 Yrotation Xrotation Zrotation
										JOINT RightHandPinky2
										{
											OFFSET -2.875 0 0
											CHANNELS 3 Yrotation Xrotation Zrotation
											JOINT RightHandPinky3
											{
												OFFSET -2.0125 0 0
												CHANNELS 3 Yrotation Xrotation Zrotation
												JOINT RightHandPinky4
												{
													OFFSET -1.25062 0 0
													CHANNELS 3 Yrotation Xrotation Zrotation
													End Site
													{
														OFFSET -0 0 0
													}
												}
											}
										}
									}
								}
							}
						}
					}
				}
			}
		}
	}
	JOINT LeftUpLeg
	{
		OFFSET 10.0086 -3.33619 3
		CHANNELS 3 Yrotation Xrotation Zrotation
		JOINT LeftLeg
		{
			OFFSET -0 -43.585 2.33533
			CHANNELS 3 Yrotation Xrotation Zrotation
			JOINT LeftFoot
			{
				OFFSET -0 -36.8654 -2.33533
				CHANNELS 3 Yrotation Xrotation Zrotation
				JOINT LeftToeBase
				{
					OFFSET -0 -9.43469 9.49123
					CHANNELS 3 Yrotation Xrotation Zrotation
					End Site
					{
						OFFSET 0 0 5
					}
				}
			}
		}
	}
	JOINT RightUpLeg
	{
		OFFSET -10.0086 -3.33619 3
		CHANNELS 3 Yrotation Xrotation Zrotation
		JOINT RightLeg
		{
			OFFSET -0 -43.585 2.33533
			CHANNELS 3 Yrotation Xrotation Zrotation
			JOINT RightFoot
			{
				OFFSET -0 -36.8654 -2.33533
				CHANNELS 3 Yrotation Xrotation Zrotation
				JOINT RightToeBase
				{
					OFFSET -0 -9.43469 9.49123
					CHANNELS 3 Yrotation Xrotation Zrotation
					End Site
					{
						OFFSET 0 0 5
					}
				}
			}
		}
	}
}
MOTION
Frames: 5
Frame Time: 0.0047619
0 93.750966 0 0 0 0 0 0 0 0 0 0 0 0 0 0 0 0 0 0 0 0 0 0 0 0 0 0 0 0 0 0 0 0 0 0 0 0 0 0 0 0 0 0 0 0 0 0 0 0 0 0 0 0 0 0 0 0 0 0 0 0 0 0 0 0 0 0 0 0 0 0 0 0 0 0 0 0 0 0 0 0 0 0 0 0 0 0 0 0 0 0 0 0 0 0 0 0 0 0 0 0 0 0 0 0 0 0 0 0 0 0 0 0 0 0 0 0 0 0 0 0 0 0 0 0 0 0 0 0 0 0 0 0 0 0 0 0 0 0 0 0 0 0 0 0 0 0 0 0 0 0 0 0 0 0 0 0 0 0 0 0 0 0 0 0 0 0 0 0 0 0 0 0 0 0 0 0 0 0 0 0 0 0 0 0 0 0 0 0 0 0
-24.533891 93.782892 4.257898 0.515929 -3.966926 0.805051 0.565142 1.096396 -0.194932 0.407468 1.246178 -0.144304 0.052232 1.389822 -0.092702 -0.079635 1.505346 -0.025738 0.418984 2.011993 0.352223 0.182149 -1.897710 -0.710987 7.332945 3.474934 9.684716 -17.689692 -0.937876 -3.141688 -8.226212 3.105018 -0.125464 13.224857 3.614186 -29.897589 26.685063 1.271191 -2.563064 30.685284 1.559444 -2.886484 -32.654997 -10.681265 3.347974 0.000017 -0.000002 12.499993 0.000017 -0.000002 12.499993 -0.000007 0.000002 10.000003 0.000000 -0.000000 4.999999 0.000041 -0.000004 1.901338 0.000041 -0.000004 1.901338 0.000031 0.000006 1.521077 0.000007 -0.000004 0.760537 0.000065 -0.000002 3.113044 0.000065 -0.000002 3.113044 0.000044 0.000002 2.490440 0.000024 -0.000000 1.245219 0.000031 -0.000004 1.973715 0.000031 -0.000004 1.973715 0.000010 -0.000000 1.578974 0.000007 0.000010 0.789486 -174.967294 -0.002701 -179.938540 -9.097795 5.859858 -10.250895 15.779839 1.243392 0.471689 7.506254 3.078349 -0.015346 -8.816441 0.750691 25.058514 -8.978321 6.900516 -12.149521 -10.455102 7.762824 -14.074418 -50.121042 28.011728 -17.640827 0.000000 -0.000000 -12.500000 0.000000 -0.000000 -12.500000 -0.000002 -0.000003 -10.000002 0.000005 0.000001 -5.000003 0.000000 -0.000000 -12.500000 0.000000 -0.000000 -12.500000 -0.000002 -0.000003 -10.000002 0.000005 0.000001 -5.000003 0.000011 -0.000019 38.925352 0.000011 -0.000019 38.925352 0.000020 0.000004 31.140274 0.000006 0.000001 15.570136 0.000000 0.000002 17.641085 0.000000 0.000002 17.641085 -0.000007 0.000002 14.112877 0.000005 0.000002 7.056425 26.685063 1.271191 -2.563064 4.401851 8.207110 3.820468 0.000000 2.320531 0.000000 0.710537 0.617692 0.867314 0.000000 -8.127437 0.000000 -7.462646 8.939707 -4.401967 0.000000 2.306397 0.000000 -9.073353 0.542787 4.306576 0.000000 -9.850348 0.000000
-24.517473 93.782813 4.258201 0.518449 -3.967223 0.798865 0.570588 1.105038 -0.194257 0.413414 1.228435 -0.142028 0.050685 1.389759 -0.087835 -0.081440 1.509344 -0.024221 0.399805 2.051523 0.323968 0.173667 -1.923764 -0.663712 7.322915 3.486191 9.679278 -17.697979 -0.944372 -3.146144 -8.234967 3.055212 -0.126355 13.237048 3.679515 -29.893564 26.685063 1.271191 -2.563064 30.685284 1.559444 -2.886484 -32.654997 -10.681265 3.347974 0.000017 -0.000002 12.499993 0.000017 -0.000002 12.499993 -0.000007 0.000002 10.000003 0.000000 -0.000000 4.999999 0.000041 -0.000004 1.901338 0.000041 -0.000004 1.901338 0.000031 0.000006 1.521077 0.000007 -0.000004 0.760537 0.000065 -0.000002 3.113044 0.000065 -0.000002 3.113044 0.000044 0.000002 2.490440 0.000024 -0.000000 1.245219 0.000031 -0.000004 1.973715 0.000031 -0.000004 1.973715 0.000010 -0.000000 1.578974 0.000007 0.000010 0.789486 -174.967294 -0.002701 -179.938540 -9.090338 5.869716 -10.263664 15.774731 1.222807 0.481550 7.528088 3.068308 -0.012479 -8.868711 0.764337 25.028368 -8.978321 6.900516 -12.149521 -10.455102 7.762824 -14.074418 -50.121042 28.011728 -17.640827 0.000000 -0.000000 -12.500000 0.000000 -0.000000 -12.500000 -0.000002 -0.000003 -10.000002 0.000005 0.000001 -5.000003 0.000000 -0.000000 -12.500000 0.000000 -0.000000 -12.500000 -0.000002 -0.000003 -10.000002 0.000005 0.000001 -5.000003 0.000011 -0.000019 38.925352 0.000011 -0.000019 38.925352 0.000020 0.000004 31.140274 0.000006 0.000001 15.570136 0.000000 0.000002 17.641085 0.000000 0.000002 17.641085 -0.000007 0.000002 14.112877 0.000005 0.000002 7.056425 26.685063 1.271191 -2.563064 4.396905 8.209858 3.820077 0.000000 2.314979 0.000000 0.709568 0.606927 0.827693 0.000000 -8.142694 0.000000 -7.467604 8.937818 -4.404958 0.000000 2.317724 0.000000 -9.064347 0.520595 4.308633 0.000000 -9.785397 0.000000
-24.501845 93.782379 4.260245 0.510369 -3.965728 0.798089 0.572749 1.092395 -0.196798 0.414992 1.237830 -0.142994 0.052718 1.398323 -0.084970 -0.079813 1.507253 -0.032136 0.392059 2.070973 0.332812 0.170451 -1.942593 -0.666737 7.340346 3.507826 9.665714 -17.716182 -0.968017 -3.100411 -8.233351 3.049707 -0.151701 13.259307 3.649879 -29.912291 26.667410 1.275750 -2.561764 30.664969 1.564556 -2.884870 -32.685958 -10.729400 3.336254 0.000007 0.000003 12.500002 0.000007 0.000003 12.500002 -0.000020 0.000002 10.000003 0.000020 0.000004 4.999997 0.000003 0.000003 1.837624 0.000003 0.000003 1.837624 -0.000003 -0.000000 1.470096 -0.000003 -0.000000 0.735048 0.000024 -0.000004 3.163285 0.000024 -0.000004 3.163285 0.000017 0.000006 2.530633 0.000017 0.000004 1.265317 0.000000 0.000003 1.923223 0.000000 0.000003 1.923223 0.000003 0.000000 1.538578 -0.000003 -0.000004 0.769288 -174.967304 -0.002701 -179.938540 -9.085013 5.863630 -10.261119 15.784824 1.181684 0.491665 7.545707 3.073626 -0.025806 -8.898564 0.794543 25.024327 -8.944390 6.919630 -12.155508 -10.416525 7.785332 -14.081317 -50.133840 28.020736 -17.567158 -0.000002 -0.000002 -12.500003 -0.000002 -0.000002 -12.500003 0.000000 -0.000000 -10.000001 0.000001 -0.000002 -5.000000 -0.000002 -0.000002 -12.500003 -0.000002 -0.000002 -12.500003 0.000000 -0.000000 -10.000001 0.000001 -0.000002 -5.000000 0.000007 -0.000010 38.687963 0.000007 -0.000010 38.687963 0.000007 -0.000004 30.950359 0.000006 0.000006 15.475180 0.000005 -0.000002 17.517659 0.000005 -0.000002 17.517659 -0.000000 -0.000003 14.014138 -0.000001 0.000002 7.007063 26.667410 1.275750 -2.561764 4.412696 8.211546 3.811040 0.000000 2.318130 0.000000 0.699341 0.593845 0.880908 0.000000 -8.140053 0.000000 -7.485612 8.936470 -4.416180 0.000000 2.309269 0.000000 -9.030689 0.529751 4.311997 0.000000 -9.775754 0.000000
-24.487491 93.780414 4.259528 0.496690 -3.964444 0.802895 0.584889 1.108296 -0.202354 0.427477 1.225301 -0.146555 0.042962 1.382837 -0.085065 -0.090696 1.505327 -0.044702 0.408148 2.102166 0.340621 0.177128 -1.930907 -0.647546 7.336078 3.592718 9.638188 -17.672801 -1.061724 -3.008032 -8.261261 3.040832 -0.194714 13.264221 3.702585 -29.914028 26.667410 1.275750 -2.561764 30.664969 1.564556 -2.884870 -32.685958 -10.729400 3.336254 0.000007 0.000003 12.500002 0.000007 0.000003 12.500002 -0.000020 0.000002 10.000003 0.000020 0.000004 4.999997 0.000003 0.000003 1.837624 0.000003 0.000003 1.837624 -0.000003 -0.000000 1.470096 -0.000003 -0.000000 0.735048 0.000024 -0.000004 3.163285 0.000024 -0.000004 3.163285 0.000017 0.000006 2.530633 0.000017 0.000004 1.265317 0.000000 0.000003 1.923223 0.000000 0.000003 1.923223 0.000003 0.000000 1.538578 -0.000003 -0.000004 0.769288 -174.967304 -0.002701 -179.938540 -9.058360 5.875565 -10.256450 15.794276 1.163136 0.503916 7.537910 3.105081 -0.029303 -8.923441 0.768856 25.016410 -8.944390 6.919630 -12.155508 -10.416525 7.785332 -14.081317 -50.133840 28.020736 -17.567158 -0.000002 -0.000002 -12.500003 -0.000002 -0.000002 -12.500003 0.000000 -0.000000 -10.000001 0.000001 -0.000002 -5.000000 -0.000002 -0.000002 -12.500003 -0.000002 -0.000002 -12.500003 0.000000 -0.000000 -10.000001 0.000001 -0.000002 -5.000000 0.000007 -0.000010 38.687963 0.000007 -0.000010 38.687963 0.000007 -0.000004 30.950359 0.000006 0.000006 15.475180 0.000005 -0.000002 17.517659 0.000005 -0.000002 17.517659 -0.000000 -0.000003 14.014138 -0.000001 0.000002 7.007063 26.667410 1.275750 -2.561764 4.452959 8.210431 3.798604 0.000000 2.316119 0.000000 0.669117 0.585298 0.908263 0.000000 -8.112897 0.000000 -7.481141 8.935956 -4.433444 0.000000 2.294751 0.000000 -9.031372 0.552847 4.322845 0.000000 -9.781494 0.000000
